<svg width="248" height="56" viewBox="0 0 248 56" fill="none" xmlns="http://www.w3.org/2000/svg">
<path d="M65.31 25.94L64.4 25.835V32.66C64.4 33.3833 64.4233 33.955 64.47 34.375C64.5167 34.795 64.6333 35.0983 64.82 35.285C65.03 35.4717 65.3567 35.6117 65.8 35.705C66.2667 35.775 66.9083 35.845 67.725 35.915C67.795 36.2883 67.795 36.6617 67.725 37.035C67.2583 37.035 66.6983 37.0233 66.045 37C65.3917 37 64.7383 37 64.085 37C63.4317 36.9767 62.8833 36.965 62.44 36.965C62.02 36.965 61.4717 36.9767 60.795 37C60.1183 37 59.4417 37 58.765 37C58.0883 37.0233 57.5167 37.035 57.05 37.035C56.98 36.685 56.98 36.3117 57.05 35.915C58.17 35.8217 58.975 35.7283 59.465 35.635C59.955 35.5183 60.2583 35.285 60.375 34.935C60.4917 34.5617 60.55 33.955 60.55 33.115V16.805C60.55 15.8483 60.48 15.16 60.34 14.74C60.2233 14.32 59.92 14.04 59.43 13.9C58.94 13.76 58.1467 13.655 57.05 13.585C56.98 13.235 56.98 12.8617 57.05 12.465C57.4933 12.465 58.065 12.4767 58.765 12.5C59.4883 12.5 60.1883 12.5117 60.865 12.535C61.565 12.535 62.0783 12.535 62.405 12.535C62.825 12.535 63.3617 12.535 64.015 12.535C64.6917 12.5117 65.3567 12.4883 66.01 12.465C66.6867 12.4417 67.2117 12.43 67.585 12.43C69.055 12.43 70.42 12.6283 71.68 13.025C72.9633 13.4217 73.99 14.075 74.76 14.985C75.5533 15.8717 75.95 17.0733 75.95 18.59C75.95 20.0833 75.495 21.4133 74.585 22.58C73.6983 23.7467 72.2867 24.6217 70.35 25.205V25.31C70.7 25.59 71.0967 26.0567 71.54 26.71L75.215 32.03C75.8217 32.8933 76.3233 33.57 76.72 34.06C77.14 34.55 77.5367 34.9233 77.91 35.18C78.2833 35.4133 78.715 35.5767 79.205 35.67C79.695 35.7633 80.3133 35.845 81.06 35.915C81.13 36.2883 81.13 36.6617 81.06 37.035C80.6167 37.035 80.0683 37.0233 79.415 37C78.7617 37 78.1317 37 77.525 37C76.9183 36.9767 76.4283 36.965 76.055 36.965C75.6817 36.965 75.355 36.9767 75.075 37C74.795 37 74.4683 37 74.095 37L67.62 27.445C67.2233 26.8383 66.8733 26.4533 66.57 26.29C66.2667 26.1033 65.8467 25.9867 65.31 25.94ZM64.4 24.4C64.7033 24.4467 64.9717 24.4817 65.205 24.505C65.4383 24.5283 65.66 24.54 65.87 24.54C67.69 24.54 69.125 24.0733 70.175 23.14C71.2483 22.2067 71.785 20.83 71.785 19.01C71.785 17.3533 71.3183 16.0817 70.385 15.195C69.475 14.3083 68.1217 13.865 66.325 13.865C66.0917 13.865 65.8 13.8767 65.45 13.9C65.1233 13.9233 64.7733 13.9583 64.4 14.005V24.4ZM89.5899 37.42C87.8865 37.42 86.3932 37.0583 85.1099 36.335C83.8499 35.5883 82.8699 34.5733 82.1699 33.29C81.4699 31.9833 81.1199 30.49 81.1199 28.81C81.1199 26.99 81.4815 25.4033 82.2049 24.05C82.9515 22.6967 83.9899 21.6467 85.3199 20.9C86.6499 20.1533 88.1782 19.78 89.9049 19.78C91.6082 19.78 93.0899 20.1533 94.3499 20.9C95.6099 21.6467 96.5899 22.6733 97.2899 23.98C97.9899 25.2867 98.3399 26.7683 98.3399 28.425C98.3399 30.1283 97.9666 31.6683 97.2199 33.045C96.4966 34.3983 95.4816 35.4717 94.1749 36.265C92.8682 37.035 91.3399 37.42 89.5899 37.42ZM85.0749 28.39C85.0749 30.77 85.4599 32.66 86.2299 34.06C87.0232 35.4367 88.2015 36.125 89.7649 36.125C91.2582 36.125 92.4016 35.4717 93.1949 34.165C93.9882 32.835 94.3849 31.0617 94.3849 28.845C94.3849 26.4883 93.9882 24.61 93.1949 23.21C92.4016 21.81 91.2466 21.11 89.7299 21.11C88.2366 21.11 87.0815 21.7517 86.2649 23.035C85.4715 24.3183 85.0749 26.1033 85.0749 28.39ZM109.585 37.42C107.882 37.42 106.388 37.0583 105.105 36.335C103.845 35.5883 102.865 34.5733 102.165 33.29C101.465 31.9833 101.115 30.49 101.115 28.81C101.115 26.99 101.477 25.4033 102.2 24.05C102.947 22.6967 103.985 21.6467 105.315 20.9C106.645 20.1533 108.173 19.78 109.9 19.78C111.603 19.78 113.085 20.1533 114.345 20.9C115.605 21.6467 116.585 22.6733 117.285 23.98C117.985 25.2867 118.335 26.7683 118.335 28.425C118.335 30.1283 117.962 31.6683 117.215 33.045C116.492 34.3983 115.477 35.4717 114.17 36.265C112.863 37.035 111.335 37.42 109.585 37.42ZM105.07 28.39C105.07 30.77 105.455 32.66 106.225 34.06C107.018 35.4367 108.197 36.125 109.76 36.125C111.253 36.125 112.397 35.4717 113.19 34.165C113.983 32.835 114.38 31.0617 114.38 28.845C114.38 26.4883 113.983 24.61 113.19 23.21C112.397 21.81 111.242 21.11 109.725 21.11C108.232 21.11 107.077 21.7517 106.26 23.035C105.467 24.3183 105.07 26.1033 105.07 28.39ZM131.4 37.035C131.353 36.6617 131.353 36.3 131.4 35.95C132.123 35.9033 132.66 35.8333 133.01 35.74C133.36 35.6233 133.593 35.39 133.71 35.04C133.827 34.69 133.885 34.13 133.885 33.36V26.29C133.885 24.89 133.663 23.8517 133.22 23.175C132.8 22.475 131.948 22.125 130.665 22.125C129.988 22.125 129.335 22.2533 128.705 22.51C128.075 22.7433 127.398 23.1867 126.675 23.84V33.01C126.675 33.92 126.722 34.5733 126.815 34.97C126.932 35.3667 127.153 35.6233 127.48 35.74C127.83 35.8333 128.367 35.9033 129.09 35.95C129.207 36.3 129.207 36.6617 129.09 37.035C128.507 37.035 127.865 37.0233 127.165 37C126.465 36.9767 125.683 36.965 124.82 36.965C123.957 36.965 123.187 36.9767 122.51 37C121.833 37.0233 121.145 37.035 120.445 37.035C120.375 36.6617 120.375 36.3 120.445 35.95C121.238 35.9033 121.822 35.8333 122.195 35.74C122.568 35.6233 122.813 35.39 122.93 35.04C123.047 34.69 123.105 34.13 123.105 33.36V16.49C123.105 15.8133 123.093 15.2767 123.07 14.88C123.047 14.46 122.942 14.1333 122.755 13.9C122.568 13.6433 122.3 13.4683 121.95 13.375C121.6 13.2583 121.04 13.165 120.27 13.095C120.2 12.7917 120.2 12.4767 120.27 12.15C121.203 12.0333 122.148 11.8583 123.105 11.625C124.062 11.3683 125.077 11.0183 126.15 10.575L126.745 10.785C126.722 11.2983 126.698 11.8817 126.675 12.535C126.675 13.165 126.675 13.865 126.675 14.635V22.405C127.725 21.425 128.752 20.7483 129.755 20.375C130.782 19.9783 131.762 19.78 132.695 19.78C134.235 19.78 135.413 20.235 136.23 21.145C137.047 22.055 137.455 23.3617 137.455 25.065V33.01C137.455 33.92 137.502 34.5733 137.595 34.97C137.712 35.3667 137.945 35.6233 138.295 35.74C138.645 35.8333 139.205 35.9033 139.975 35.95C140.022 36.3 140.022 36.6617 139.975 37.035C139.275 37.035 138.587 37.0233 137.91 37C137.257 36.9767 136.487 36.965 135.6 36.965C134.737 36.965 133.978 36.9767 133.325 37C132.695 37.0233 132.053 37.035 131.4 37.035ZM150.29 37.035C149.636 37.035 148.96 37.0233 148.26 37C147.56 36.9767 146.801 36.965 145.985 36.965C145.238 36.965 144.48 36.9767 143.71 37C142.963 37.0233 142.24 37.035 141.54 37.035C141.47 36.6617 141.47 36.3 141.54 35.95C142.333 35.9033 142.916 35.8333 143.29 35.74C143.663 35.6233 143.908 35.39 144.025 35.04C144.141 34.69 144.2 34.13 144.2 33.36V25.52C144.2 24.61 144.165 23.9333 144.095 23.49C144.025 23.0467 143.803 22.7433 143.43 22.58C143.08 22.3933 142.461 22.2417 141.575 22.125C141.505 21.7983 141.505 21.495 141.575 21.215C142.601 21.0283 143.581 20.795 144.515 20.515C145.448 20.235 146.346 19.9317 147.21 19.605L147.805 19.815C147.781 20.5383 147.758 21.215 147.735 21.845C147.735 22.475 147.735 23.07 147.735 23.63V33.01C147.735 33.92 147.781 34.5733 147.875 34.97C147.991 35.3667 148.225 35.6233 148.575 35.74C148.948 35.8333 149.52 35.9033 150.29 35.95C150.36 36.3 150.36 36.6617 150.29 37.035ZM143.29 13.655C143.29 12.9783 143.523 12.4067 143.99 11.94C144.48 11.4733 145.063 11.24 145.74 11.24C146.393 11.24 146.953 11.4733 147.42 11.94C147.91 12.4067 148.155 12.9667 148.155 13.62C148.155 14.2267 147.921 14.7867 147.455 15.3C146.988 15.79 146.393 16.035 145.67 16.035C145.016 16.035 144.456 15.8017 143.99 15.335C143.523 14.8683 143.29 14.3083 143.29 13.655ZM159.76 37.035C159.713 36.685 159.713 36.3117 159.76 35.915C160.88 35.7983 161.685 35.6933 162.175 35.6C162.665 35.4833 162.968 35.25 163.085 34.9C163.202 34.55 163.26 33.955 163.26 33.115V16.84C163.26 15.86 163.202 15.16 163.085 14.74C162.968 14.32 162.665 14.0517 162.175 13.935C161.685 13.795 160.88 13.6783 159.76 13.585C159.713 13.235 159.713 12.8617 159.76 12.465C160.227 12.465 160.798 12.4767 161.475 12.5C162.175 12.5 162.863 12.5117 163.54 12.535C164.217 12.535 164.765 12.535 165.185 12.535C165.628 12.535 166.165 12.535 166.795 12.535C167.448 12.5117 168.102 12.5 168.755 12.5C169.432 12.4767 170.003 12.465 170.47 12.465C170.54 12.815 170.54 13.1883 170.47 13.585C169.397 13.6783 168.627 13.7833 168.16 13.9C167.693 14.0167 167.402 14.25 167.285 14.6C167.168 14.95 167.11 15.545 167.11 16.385V25.03L175.16 16.49C176.047 15.5333 176.49 14.88 176.49 14.53C176.49 14.2267 176.28 14.0167 175.86 13.9C175.44 13.76 174.752 13.655 173.795 13.585C173.748 13.1883 173.748 12.815 173.795 12.465C174.192 12.465 174.693 12.4767 175.3 12.5C175.907 12.5 176.513 12.5117 177.12 12.535C177.727 12.535 178.217 12.535 178.59 12.535C179.337 12.535 180.037 12.5233 180.69 12.5C181.367 12.4767 182.102 12.465 182.895 12.465C182.942 12.8383 182.942 13.2117 182.895 13.585C182.172 13.655 181.565 13.7483 181.075 13.865C180.608 13.9817 180.153 14.18 179.71 14.46C179.29 14.74 178.812 15.1367 178.275 15.65C177.738 16.1633 177.062 16.84 176.245 17.68L171.1 23L178.31 32.485C178.87 33.2083 179.337 33.7917 179.71 34.235C180.083 34.655 180.445 34.9817 180.795 35.215C181.168 35.425 181.588 35.5767 182.055 35.67C182.545 35.7633 183.163 35.845 183.91 35.915C183.98 36.2883 183.98 36.6617 183.91 37.035C183.467 37.035 182.942 37.0233 182.335 37C181.728 37 181.133 37 180.55 37C179.967 36.9767 179.465 36.965 179.045 36.965C178.788 36.965 178.45 36.9767 178.03 37C177.633 37 177.272 37 176.945 37L168.545 25.695L167.11 27.27V32.66C167.11 33.64 167.168 34.3517 167.285 34.795C167.402 35.215 167.693 35.4833 168.16 35.6C168.65 35.7167 169.42 35.8217 170.47 35.915C170.54 36.2883 170.54 36.6617 170.47 37.035C170.003 37.035 169.432 37.0233 168.755 37C168.102 37 167.437 37 166.76 37C166.107 36.9767 165.558 36.965 165.115 36.965C164.672 36.965 164.123 36.9767 163.47 37C162.817 37 162.152 37 161.475 37C160.822 37.0233 160.25 37.035 159.76 37.035ZM195.384 37.035C195.338 36.6617 195.338 36.3 195.384 35.95C196.108 35.9033 196.644 35.8333 196.994 35.74C197.344 35.6233 197.578 35.39 197.694 35.04C197.811 34.69 197.869 34.13 197.869 33.36V26.29C197.869 24.89 197.648 23.8517 197.204 23.175C196.784 22.475 195.933 22.125 194.649 22.125C193.973 22.125 193.319 22.2533 192.689 22.51C192.059 22.7433 191.383 23.1867 190.659 23.84V33.01C190.659 33.92 190.706 34.5733 190.799 34.97C190.916 35.3667 191.138 35.6233 191.464 35.74C191.814 35.8333 192.351 35.9033 193.074 35.95C193.191 36.3 193.191 36.6617 193.074 37.035C192.491 37.035 191.849 37.0233 191.149 37C190.449 36.9767 189.668 36.965 188.804 36.965C187.941 36.965 187.171 36.9767 186.494 37C185.818 37.0233 185.129 37.035 184.429 37.035C184.359 36.6617 184.359 36.3 184.429 35.95C185.223 35.9033 185.806 35.8333 186.179 35.74C186.553 35.6233 186.798 35.39 186.914 35.04C187.031 34.69 187.089 34.13 187.089 33.36V16.49C187.089 15.8133 187.078 15.2767 187.054 14.88C187.031 14.46 186.926 14.1333 186.739 13.9C186.553 13.6433 186.284 13.4683 185.934 13.375C185.584 13.2583 185.024 13.165 184.254 13.095C184.184 12.7917 184.184 12.4767 184.254 12.15C185.188 12.0333 186.133 11.8583 187.089 11.625C188.046 11.3683 189.061 11.0183 190.134 10.575L190.729 10.785C190.706 11.2983 190.683 11.8817 190.659 12.535C190.659 13.165 190.659 13.865 190.659 14.635V22.405C191.709 21.425 192.736 20.7483 193.739 20.375C194.766 19.9783 195.746 19.78 196.679 19.78C198.219 19.78 199.398 20.235 200.214 21.145C201.031 22.055 201.439 23.3617 201.439 25.065V33.01C201.439 33.92 201.486 34.5733 201.579 34.97C201.696 35.3667 201.929 35.6233 202.279 35.74C202.629 35.8333 203.189 35.9033 203.959 35.95C204.006 36.3 204.006 36.6617 203.959 37.035C203.259 37.035 202.571 37.0233 201.894 37C201.241 36.9767 200.471 36.965 199.584 36.965C198.721 36.965 197.963 36.9767 197.309 37C196.679 37.0233 196.038 37.035 195.384 37.035ZM217.984 37.35C216.444 37.35 215.476 36.58 215.079 35.04C213.422 36.6267 211.731 37.42 210.004 37.42C208.814 37.42 207.799 37.07 206.959 36.37C206.142 35.6467 205.734 34.655 205.734 33.395C205.734 30.315 208.872 28.3783 215.149 27.585C215.149 27.025 215.149 26.4533 215.149 25.87C215.172 25.2867 215.184 24.6683 215.184 24.015C215.184 23.1983 214.881 22.5683 214.274 22.125C213.691 21.6583 212.979 21.425 212.139 21.425C211.532 21.425 211.019 21.5183 210.599 21.705C210.599 22.2417 210.482 22.79 210.249 23.35C210.016 23.91 209.689 24.3883 209.269 24.785C208.872 25.1583 208.382 25.345 207.799 25.345C207.286 25.345 206.877 25.205 206.574 24.925C206.294 24.6217 206.154 24.26 206.154 23.84C206.154 23.28 206.411 22.755 206.924 22.265C207.461 21.7517 208.137 21.32 208.954 20.97C209.771 20.5967 210.622 20.305 211.509 20.095C212.396 19.885 213.189 19.78 213.889 19.78C214.752 19.78 215.546 19.9433 216.269 20.27C217.016 20.5733 217.611 21.04 218.054 21.67C218.521 22.2767 218.754 23.035 218.754 23.945C218.754 24.505 218.742 25.24 218.719 26.15C218.696 27.0367 218.672 27.9933 218.649 29.02C218.649 30.0233 218.637 30.98 218.614 31.89C218.591 32.8 218.579 33.535 218.579 34.095C218.579 34.8417 218.906 35.215 219.559 35.215C219.979 35.215 220.621 35.075 221.484 34.795C221.577 34.9117 221.636 35.04 221.659 35.18C221.706 35.32 221.741 35.4483 221.764 35.565C221.181 36.195 220.562 36.65 219.909 36.93C219.279 37.21 218.637 37.35 217.984 37.35ZM215.079 34.095L215.149 28.845C213.002 29.125 211.521 29.58 210.704 30.21C209.911 30.84 209.514 31.645 209.514 32.625C209.514 33.4417 209.724 34.0717 210.144 34.515C210.587 34.935 211.136 35.145 211.789 35.145C212.209 35.145 212.676 35.0517 213.189 34.865C213.726 34.6783 214.356 34.4217 215.079 34.095ZM233.74 37.035C233.693 36.6617 233.693 36.3 233.74 35.95C234.463 35.9033 235 35.8333 235.35 35.74C235.7 35.6233 235.933 35.39 236.05 35.04C236.167 34.69 236.225 34.13 236.225 33.36V26.29C236.225 24.89 236.003 23.8517 235.56 23.175C235.14 22.475 234.288 22.125 233.005 22.125C232.328 22.125 231.675 22.2533 231.045 22.51C230.415 22.7433 229.727 23.1983 228.98 23.875V33.01C228.98 33.92 229.027 34.5733 229.12 34.97C229.237 35.3667 229.47 35.6233 229.82 35.74C230.17 35.8333 230.718 35.9033 231.465 35.95C231.512 36.3 231.512 36.6617 231.465 37.035C230.812 37.035 230.123 37.0233 229.4 37C228.7 36.9767 227.942 36.965 227.125 36.965C226.378 36.965 225.643 36.9767 224.92 37C224.197 37.0233 223.485 37.035 222.785 37.035C222.715 36.6617 222.715 36.3 222.785 35.95C223.578 35.9033 224.162 35.8333 224.535 35.74C224.908 35.6233 225.153 35.39 225.27 35.04C225.387 34.69 225.445 34.13 225.445 33.36V25.52C225.445 24.61 225.398 23.9333 225.305 23.49C225.235 23.0467 225.013 22.7433 224.64 22.58C224.29 22.3933 223.683 22.2417 222.82 22.125C222.75 21.7983 222.75 21.495 222.82 21.215C224.827 20.8183 226.67 20.2817 228.35 19.605L228.945 19.815V22.44C230.018 21.46 231.068 20.7717 232.095 20.375C233.122 19.9783 234.102 19.78 235.035 19.78C236.575 19.78 237.753 20.235 238.57 21.145C239.387 22.055 239.795 23.3617 239.795 25.065V33.01C239.795 33.92 239.842 34.5733 239.935 34.97C240.052 35.3667 240.285 35.6233 240.635 35.74C240.985 35.8333 241.545 35.9033 242.315 35.95C242.362 36.3 242.362 36.6617 242.315 37.035C241.615 37.035 240.927 37.0233 240.25 37C239.597 36.9767 238.827 36.965 237.94 36.965C237.077 36.965 236.318 36.9767 235.665 37C235.035 37.0233 234.393 37.035 233.74 37.035Z" fill="white"/>
<mask id="mask0_21_43" style="mask-type:luminance" maskUnits="userSpaceOnUse" x="0" y="4" width="50" height="52">
<path d="M50 4H0V55.3303H50V4Z" fill="white"/>
</mask>
<g mask="url(#mask0_21_43)">
<path d="M20.5277 42.3533V24.8802H23.5547V41.719C22.5379 41.9119 21.5288 42.1229 20.5277 42.3533ZM12.6691 44.5878V20.3266C12.6691 16.9286 10.6988 13.9914 7.83857 12.5935V20.1831C7.84047 20.2311 7.84142 20.2787 7.84142 20.3266L7.8362 46.4227C5.74566 47.297 3.69265 48.2643 1.67671 49.3229C1.67671 49.3229 2.0321 51.3255 2.74383 55.3303C21.8951 46.0911 37.6478 41.2159 50 40.7027C45.0231 40.2214 40.1897 40.0951 35.4993 40.3212C35.7473 40.2761 35.9958 40.2333 36.2447 40.1901L36.2428 31.1438V30.5589L36.2409 20.3266C36.2409 20.2848 36.2419 20.2425 36.2428 20.2012V12.594C33.3831 13.9918 31.4132 16.929 31.4132 20.3266V40.6115C30.3974 40.707 29.3878 40.8201 28.3862 40.9498V24.8802V20.0487H23.5547H20.5277H15.6961V43.6219C14.6789 43.9246 13.6698 44.2472 12.6691 44.5878ZM0 4H44.0804V8.83105H0V4ZM15.3332 17.0217H28.7487L28.8499 16.7095C29.2965 15.3336 29.9964 14.0484 30.9096 12.9261L31.5087 12.1897H12.5727L13.1723 12.9261C14.0855 14.0479 14.7858 15.3331 15.232 16.7095L15.3332 17.0217Z" fill="url(#paint0_linear_21_43)"/>
</g>
<defs>
<linearGradient id="paint0_linear_21_43" x1="0" y1="29.6652" x2="50" y2="29.6652" gradientUnits="userSpaceOnUse">
<stop stop-color="#DDB263"/>
<stop offset="1" stop-color="#9B7630"/>
</linearGradient>
</defs>
</svg>
