<svg width="218" height="56" viewBox="0 0 218 56" fill="none" xmlns="http://www.w3.org/2000/svg">
<path d="M61.53 27.87H65.555C69.615 27.87 72.31 25.14 72.31 20.94C72.31 16.88 69.615 14.185 65.555 14.185H62.23C61.81 14.185 61.53 14.465 61.53 14.92V27.87ZM62.23 38.65H62.965V39H56.49V38.65H57.225C57.645 38.65 57.925 38.37 57.925 37.915V14.92C57.925 14.465 57.645 14.185 57.225 14.185H56.49V13.835H68.775C73.08 13.835 75.915 16.67 75.915 21.08C75.915 25.28 73.22 28.08 69.125 28.22C71.785 29.095 73.115 31.475 74.095 33.435L76.37 37.81C76.615 38.3 77.175 38.65 77.7 38.65H78.05V39H73.92C73.395 39 72.835 38.685 72.59 38.16L70.14 33.435C69.02 31.195 67.27 28.22 63.21 28.22H61.53V37.915C61.53 38.37 61.81 38.65 62.23 38.65ZM80.8462 30.005C80.8462 35.395 82.8412 39 86.1312 39C89.3512 39 91.3812 35.395 91.3812 30.005C91.3812 24.615 89.3512 21.01 86.1312 21.01C82.8412 21.01 80.8462 24.615 80.8462 30.005ZM77.0662 30.005C77.0662 24.405 80.7062 20.66 86.1312 20.66C91.5212 20.66 95.1612 24.405 95.1612 30.005C95.1612 35.605 91.5212 39.35 86.1312 39.35C80.7062 39.35 77.0662 35.605 77.0662 30.005ZM113.498 27.345V37.915C113.498 38.37 113.813 38.65 114.233 38.65H114.933V39H108.493V38.65H109.193C109.613 38.65 109.928 38.37 109.928 37.915V28.08C109.928 24.37 108.318 22.41 106.043 22.41C103.033 22.41 100.933 25.735 100.933 30.18V37.915C100.933 38.37 101.213 38.65 101.633 38.65H102.368V39H95.8934V38.65H96.6284C97.0484 38.65 97.3284 38.37 97.3284 37.915V14.535C97.3284 14.115 97.0484 13.835 96.6284 13.835H95.8934V13.485L100.583 12.75H100.933V27.03C101.878 23.11 104.608 20.66 108.003 20.66C111.468 20.66 113.498 23.145 113.498 27.345ZM121.187 38.65H121.922V39H115.447V38.65H116.182C116.602 38.65 116.882 38.37 116.882 37.915V22.83C116.882 22.375 116.602 22.095 116.182 22.095H115.447V21.745L120.137 21.01H120.487V37.915C120.487 38.37 120.767 38.65 121.187 38.65ZM116.322 14.745C116.322 13.31 117.232 12.4 118.667 12.4C120.102 12.4 121.012 13.31 121.012 14.745C121.012 16.18 120.102 17.09 118.667 17.09C117.232 17.09 116.322 16.18 116.322 14.745ZM139.715 38.65H140.45V39H133.975V38.65H134.71C135.13 38.65 135.41 38.37 135.41 37.915V14.92C135.41 14.465 135.13 14.185 134.71 14.185H133.975V13.835H140.45V14.185H139.715C139.295 14.185 139.015 14.465 139.015 14.92V26.435L149.445 14.78C149.725 14.43 149.62 14.22 149.2 14.22H148.465V13.835H151.825V14.22H151.09C150.67 14.22 150.18 14.43 149.9 14.78L142.165 23.46C147.17 23.25 148.885 25.77 149.76 28.675L152.385 37.81C152.525 38.405 153.19 38.65 153.715 38.65H154.065V39H149.935C149.165 39 148.71 38.51 148.465 37.67L145.805 28.675C145.21 26.68 144.405 24.265 141.815 23.81L139.015 26.995V37.915C139.015 38.37 139.295 38.65 139.715 38.65ZM171.365 27.345V37.915C171.365 38.37 171.68 38.65 172.1 38.65H172.8V39H166.36V38.65H167.06C167.48 38.65 167.795 38.37 167.795 37.915V28.08C167.795 24.37 166.185 22.41 163.91 22.41C160.9 22.41 158.8 25.735 158.8 30.18V37.915C158.8 38.37 159.08 38.65 159.5 38.65H160.235V39H153.76V38.65H154.495C154.915 38.65 155.195 38.37 155.195 37.915V14.535C155.195 14.115 154.915 13.835 154.495 13.835H153.76V13.485L158.45 12.75H158.8V27.03C159.745 23.11 162.475 20.66 165.87 20.66C169.335 20.66 171.365 23.145 171.365 27.345ZM184.933 31.23V30.81C184.093 28.92 182.693 27.485 180.978 27.485C178.773 27.485 177.163 29.83 177.163 33.015C177.163 36.13 178.668 37.915 180.733 37.915C183.883 37.915 184.933 33.645 184.933 31.23ZM189.238 38.65H189.973V39H184.933V34.275C184.303 36.76 182.833 39.35 179.403 39.35C176.008 39.35 173.383 36.9 173.383 33.645C173.383 30.04 176.533 27.135 181.118 27.135C182.378 27.135 183.778 27.345 184.933 27.87C184.898 23.11 183.603 21.01 181.328 21.01C179.263 21.01 178.073 22.76 177.583 23.705C176.218 26.54 173.628 25.105 175.063 23.005C176.183 21.36 178.738 20.66 181.223 20.66C185.773 20.66 188.538 22.97 188.538 28.57V37.915C188.538 38.37 188.818 38.65 189.238 38.65ZM208.042 27.345V37.915C208.042 38.37 208.357 38.65 208.777 38.65H209.477V39H203.037V38.65H203.737C204.157 38.65 204.472 38.37 204.472 37.915V28.08C204.472 24.37 202.862 22.41 200.587 22.41C197.577 22.41 195.477 25.735 195.477 30.18V37.915C195.477 38.37 195.757 38.65 196.177 38.65H196.912V39H190.437V38.65H191.172C191.592 38.65 191.872 38.37 191.872 37.915V22.83C191.872 22.375 191.592 22.095 191.172 22.095H190.437V21.745L195.127 21.01H195.477V27.03C196.422 23.11 199.152 20.66 202.547 20.66C206.012 20.66 208.042 23.145 208.042 27.345Z" fill="white"/>
<mask id="mask0_21_43" style="mask-type:luminance" maskUnits="userSpaceOnUse" x="0" y="4" width="50" height="52">
<path d="M50 4H0V55.3303H50V4Z" fill="white"/>
</mask>
<g mask="url(#mask0_21_43)">
<path d="M20.5277 42.3533V24.8802H23.5547V41.719C22.5379 41.9119 21.5288 42.1229 20.5277 42.3533ZM12.6691 44.5878V20.3266C12.6691 16.9286 10.6988 13.9914 7.83857 12.5935V20.1831C7.84047 20.2311 7.84142 20.2787 7.84142 20.3266L7.8362 46.4227C5.74566 47.297 3.69265 48.2643 1.67671 49.3229C1.67671 49.3229 2.0321 51.3255 2.74383 55.3303C21.8951 46.0911 37.6478 41.2159 50 40.7027C45.0231 40.2214 40.1897 40.0951 35.4993 40.3212C35.7473 40.2761 35.9958 40.2333 36.2447 40.1901L36.2428 31.1438V30.5589L36.2409 20.3266C36.2409 20.2848 36.2419 20.2425 36.2428 20.2012V12.594C33.3831 13.9918 31.4132 16.929 31.4132 20.3266V40.6115C30.3974 40.707 29.3878 40.8201 28.3862 40.9498V24.8802V20.0487H23.5547H20.5277H15.6961V43.6219C14.6789 43.9246 13.6698 44.2472 12.6691 44.5878ZM0 4H44.0804V8.83105H0V4ZM15.3332 17.0217H28.7487L28.8499 16.7095C29.2965 15.3336 29.9964 14.0484 30.9096 12.9261L31.5087 12.1897H12.5727L13.1723 12.9261C14.0855 14.0479 14.7858 15.3331 15.232 16.7095L15.3332 17.0217Z" fill="url(#paint0_linear_21_43)"/>
</g>
<defs>
<linearGradient id="paint0_linear_21_43" x1="0" y1="29.6652" x2="50" y2="29.6652" gradientUnits="userSpaceOnUse">
<stop stop-color="#DDB263"/>
<stop offset="1" stop-color="#9B7630"/>
</linearGradient>
</defs>
</svg>
